<?xml version="1.0" encoding="UTF-8" standalone="no"?>
<!DOCTYPE svg PUBLIC "-//W3C//DTD SVG 1.1//EN"
 "http://www.w3.org/Graphics/SVG/1.1/DTD/svg11.dtd">
<!-- Generated by graphviz version 8.1.0 (20230707.0739)
 -->
<!-- Pages: 1 -->
<svg width="790pt" height="260pt"
 viewBox="0.00 0.00 789.62 260.00" xmlns="http://www.w3.org/2000/svg" xmlns:xlink="http://www.w3.org/1999/xlink">
<g id="graph0" class="graph" transform="scale(1 1) rotate(0) translate(4 256)">
<polygon fill="white" stroke="none" points="-4,4 -4,-256 785.62,-256 785.62,4 -4,4"/>
<!-- variant_calling -->
<g id="node1" class="node">
<title>variant_calling</title>
<polygon fill="lemonchiffon" stroke="black" stroke-width="2" points="328.5,-252 325.5,-256 304.5,-256 301.5,-252 231.5,-252 231.5,-216 328.5,-216 328.5,-252"/>
<text text-anchor="start" x="239.5" y="-228.95" font-family="Times,serif" font-size="14.00">variant_calling</text>
</g>
<!-- variant_callingfastqc_examples -->
<g id="node2" class="node">
<title>variant_callingfastqc_examples</title>
<polygon fill="lemonchiffon" stroke="black" stroke-width="2" points="235.38,-180 232.38,-184 211.38,-184 208.38,-180 128.62,-180 128.62,-144 235.38,-144 235.38,-180"/>
<text text-anchor="start" x="136.62" y="-156.95" font-family="Times,serif" font-size="14.00">fastqc_examples</text>
</g>
<!-- variant_calling&#45;&gt;variant_callingfastqc_examples -->
<g id="edge1" class="edge">
<title>variant_calling&#45;&gt;variant_callingfastqc_examples</title>
<path fill="none" stroke="black" d="M255.52,-215.52C243.27,-206.76 228.26,-196.04 215.01,-186.58"/>
<polygon fill="black" stroke="black" points="217.34,-183.22 207.16,-180.26 213.27,-188.92 217.34,-183.22"/>
</g>
<!-- variant_callingresults -->
<g id="node3" class="node">
<title>variant_callingresults</title>
<polygon fill="lemonchiffon" stroke="black" stroke-width="2" points="307,-180 304,-184 283,-184 280,-180 253,-180 253,-144 307,-144 307,-180"/>
<text text-anchor="start" x="261" y="-156.95" font-family="Times,serif" font-size="14.00">results</text>
</g>
<!-- variant_calling&#45;&gt;variant_callingresults -->
<g id="edge2" class="edge">
<title>variant_calling&#45;&gt;variant_callingresults</title>
<path fill="none" stroke="black" d="M280,-215.7C280,-208.24 280,-199.32 280,-190.97"/>
<polygon fill="black" stroke="black" points="283.5,-191.1 280,-181.1 276.5,-191.1 283.5,-191.1"/>
</g>
<!-- variant_callingdata -->
<g id="node4" class="node">
<title>variant_callingdata</title>
<polygon fill="lemonchiffon" stroke="black" stroke-width="2" points="593,-180 590,-184 569,-184 566,-180 539,-180 539,-144 593,-144 593,-180"/>
<text text-anchor="start" x="547" y="-156.95" font-family="Times,serif" font-size="14.00">data</text>
</g>
<!-- variant_calling&#45;&gt;variant_callingdata -->
<g id="edge3" class="edge">
<title>variant_calling&#45;&gt;variant_callingdata</title>
<path fill="none" stroke="black" d="M328.84,-221.05C385.17,-207.26 476.6,-184.88 527.92,-172.32"/>
<polygon fill="black" stroke="black" points="528.66,-175.5 537.55,-169.72 527,-168.7 528.66,-175.5"/>
</g>
<!-- variant_callingresultsbcf -->
<g id="node5" class="node">
<title>variant_callingresultsbcf</title>
<polygon fill="lemonchiffon" stroke="black" stroke-width="2" points="54,-108 51,-112 30,-112 27,-108 0,-108 0,-72 54,-72 54,-108"/>
<text text-anchor="start" x="8" y="-84.95" font-family="Times,serif" font-size="14.00">bcf</text>
</g>
<!-- variant_callingresults&#45;&gt;variant_callingresultsbcf -->
<g id="edge4" class="edge">
<title>variant_callingresults&#45;&gt;variant_callingresultsbcf</title>
<path fill="none" stroke="black" d="M252.71,-148.12C247.69,-145.74 244,-144 244,-144 244,-144 104.8,-116.31 64.67,-106.73"/>
<polygon fill="black" stroke="black" points="65.85,-103.15 55.29,-103.88 64.01,-109.9 65.85,-103.15"/>
</g>
<!-- variant_callingresultssam -->
<g id="node6" class="node">
<title>variant_callingresultssam</title>
<polygon fill="lemonchiffon" stroke="black" stroke-width="2" points="126,-108 123,-112 102,-112 99,-108 72,-108 72,-72 126,-72 126,-108"/>
<text text-anchor="start" x="80" y="-84.95" font-family="Times,serif" font-size="14.00">sam</text>
</g>
<!-- variant_callingresults&#45;&gt;variant_callingresultssam -->
<g id="edge5" class="edge">
<title>variant_callingresults&#45;&gt;variant_callingresultssam</title>
<path fill="none" stroke="black" d="M252.71,-148.12C247.69,-145.74 244,-144 244,-144 244,-144 165.68,-118.13 136.51,-107.75"/>
<polygon fill="black" stroke="black" points="137.88,-104.14 127.29,-103.88 135.4,-110.69 137.88,-104.14"/>
</g>
<!-- variant_callingresultsfastqc_untrimmed_reads -->
<g id="node7" class="node">
<title>variant_callingresultsfastqc_untrimmed_reads</title>
<polygon fill="lemonchiffon" stroke="black" stroke-width="2" points="295.5,-108 292.5,-112 271.5,-112 268.5,-108 144.5,-108 144.5,-72 295.5,-72 295.5,-108"/>
<text text-anchor="start" x="152.5" y="-84.95" font-family="Times,serif" font-size="14.00">fastqc_untrimmed_reads</text>
</g>
<!-- variant_callingresults&#45;&gt;variant_callingresultsfastqc_untrimmed_reads -->
<g id="edge6" class="edge">
<title>variant_callingresults&#45;&gt;variant_callingresultsfastqc_untrimmed_reads</title>
<path fill="none" stroke="black" d="M265.17,-143.7C258.12,-135.47 249.56,-125.48 241.79,-116.42"/>
<polygon fill="black" stroke="black" points="243.83,-114.42 234.66,-109.1 238.51,-118.97 243.83,-114.42"/>
</g>
<!-- variant_callingresultsbam -->
<g id="node8" class="node">
<title>variant_callingresultsbam</title>
<polygon fill="lemonchiffon" stroke="black" stroke-width="2" points="368,-108 365,-112 344,-112 341,-108 314,-108 314,-72 368,-72 368,-108"/>
<text text-anchor="start" x="322" y="-84.95" font-family="Times,serif" font-size="14.00">bam</text>
</g>
<!-- variant_callingresults&#45;&gt;variant_callingresultsbam -->
<g id="edge7" class="edge">
<title>variant_callingresults&#45;&gt;variant_callingresultsbam</title>
<path fill="none" stroke="black" d="M295.08,-143.7C302.32,-135.39 311.13,-125.28 319.09,-116.14"/>
<polygon fill="black" stroke="black" points="322.16,-118.94 326.09,-109.1 316.89,-114.34 322.16,-118.94"/>
</g>
<!-- variant_callingresultsvcf -->
<g id="node9" class="node">
<title>variant_callingresultsvcf</title>
<polygon fill="lemonchiffon" stroke="black" stroke-width="2" points="440,-108 437,-112 416,-112 413,-108 386,-108 386,-72 440,-72 440,-108"/>
<text text-anchor="start" x="394" y="-84.95" font-family="Times,serif" font-size="14.00">vcf</text>
</g>
<!-- variant_callingresults&#45;&gt;variant_callingresultsvcf -->
<g id="edge8" class="edge">
<title>variant_callingresults&#45;&gt;variant_callingresultsvcf</title>
<path fill="none" stroke="black" d="M307.24,-146.67C327.14,-136.19 354.35,-121.87 376.19,-110.37"/>
<polygon fill="black" stroke="black" points="377.58,-113.07 384.8,-105.32 374.32,-106.88 377.58,-113.07"/>
</g>
<!-- variant_callingdatatrimmed_fastq -->
<g id="node10" class="node">
<title>variant_callingdatatrimmed_fastq</title>
<polygon fill="lemonchiffon" stroke="black" stroke-width="2" points="554.12,-108 551.12,-112 530.12,-112 527.12,-108 457.88,-108 457.88,-72 554.12,-72 554.12,-108"/>
<text text-anchor="start" x="465.88" y="-84.95" font-family="Times,serif" font-size="14.00">trimmed_fastq</text>
</g>
<!-- variant_callingdata&#45;&gt;variant_callingdatatrimmed_fastq -->
<g id="edge9" class="edge">
<title>variant_callingdata&#45;&gt;variant_callingdatatrimmed_fastq</title>
<path fill="none" stroke="black" d="M551.17,-143.7C544.12,-135.47 535.56,-125.48 527.79,-116.42"/>
<polygon fill="black" stroke="black" points="529.83,-114.42 520.66,-109.1 524.51,-118.97 529.83,-114.42"/>
</g>
<!-- variant_callingdatauntrimmed_fastq -->
<g id="node11" class="node">
<title>variant_callingdatauntrimmed_fastq</title>
<polygon fill="lemonchiffon" stroke="black" stroke-width="2" points="681.88,-108 678.88,-112 657.88,-112 654.88,-108 572.12,-108 572.12,-72 681.88,-72 681.88,-108"/>
<text text-anchor="start" x="580.12" y="-84.95" font-family="Times,serif" font-size="14.00">untrimmed_fastq</text>
</g>
<!-- variant_callingdata&#45;&gt;variant_callingdatauntrimmed_fastq -->
<g id="edge10" class="edge">
<title>variant_callingdata&#45;&gt;variant_callingdatauntrimmed_fastq</title>
<path fill="none" stroke="black" d="M581.08,-143.7C588.32,-135.39 597.13,-125.28 605.09,-116.14"/>
<polygon fill="black" stroke="black" points="608.16,-118.94 612.09,-109.1 602.89,-114.34 608.16,-118.94"/>
</g>
<!-- variant_callingdataref_genome -->
<g id="node12" class="node">
<title>variant_callingdataref_genome</title>
<polygon fill="lemonchiffon" stroke="black" stroke-width="2" points="781.62,-108 778.62,-112 757.62,-112 754.62,-108 700.38,-108 700.38,-72 781.62,-72 781.62,-108"/>
<text text-anchor="start" x="708.38" y="-84.95" font-family="Times,serif" font-size="14.00">ref_genome</text>
</g>
<!-- variant_callingdata&#45;&gt;variant_callingdataref_genome -->
<g id="edge11" class="edge">
<title>variant_callingdata&#45;&gt;variant_callingdataref_genome</title>
<path fill="none" stroke="black" d="M593.34,-150.06C619.19,-139.72 658.62,-123.95 690.23,-111.31"/>
<polygon fill="black" stroke="black" points="691.21,-114.29 699.19,-107.32 688.61,-107.79 691.21,-114.29"/>
</g>
<!-- variant_callingdatauntrimmed_fastqspades_test -->
<g id="node13" class="node">
<title>variant_callingdatauntrimmed_fastqspades_test</title>
<polygon fill="lemonchiffon" stroke="black" stroke-width="2" points="613.75,-36 610.75,-40 589.75,-40 586.75,-36 536.25,-36 536.25,0 613.75,0 613.75,-36"/>
<text text-anchor="start" x="544.25" y="-12.95" font-family="Times,serif" font-size="14.00">spades_test</text>
</g>
<!-- variant_callingdatauntrimmed_fastq&#45;&gt;variant_callingdatauntrimmed_fastqspades_test -->
<g id="edge12" class="edge">
<title>variant_callingdatauntrimmed_fastq&#45;&gt;variant_callingdatauntrimmed_fastqspades_test</title>
<path fill="none" stroke="black" d="M614.15,-71.7C608.1,-63.56 600.77,-53.69 594.09,-44.7"/>
<polygon fill="black" stroke="black" points="596.48,-43.04 587.71,-37.1 590.86,-47.22 596.48,-43.04"/>
</g>
<!-- variant_callingdatauntrimmed_fastqspades_output -->
<g id="node14" class="node">
<title>variant_callingdatauntrimmed_fastqspades_output</title>
<polygon fill="lemonchiffon" stroke="black" stroke-width="2" points="724.62,-36 721.62,-40 700.62,-40 697.62,-36 631.38,-36 631.38,0 724.62,0 724.62,-36"/>
<text text-anchor="start" x="639.38" y="-12.95" font-family="Times,serif" font-size="14.00">spades_output</text>
</g>
<!-- variant_callingdatauntrimmed_fastq&#45;&gt;variant_callingdatauntrimmed_fastqspades_output -->
<g id="edge13" class="edge">
<title>variant_callingdatauntrimmed_fastq&#45;&gt;variant_callingdatauntrimmed_fastqspades_output</title>
<path fill="none" stroke="black" d="M639.61,-71.7C645.47,-63.64 652.58,-53.89 659.07,-44.98"/>
<polygon fill="black" stroke="black" points="662.48,-47.25 665.54,-37.1 656.82,-43.13 662.48,-47.25"/>
</g>
</g>
</svg>
